<svg width="17" height="16" viewBox="0 0 17 16" fill="none" xmlns="http://www.w3.org/2000/svg">
<path fill-rule="evenodd" clip-rule="evenodd" d="M8.36035 8.66667C10.2013 8.66667 11.6937 7.17427 11.6937 5.33333C11.6937 3.49239 10.2013 2 8.36035 2C6.5194 2 5.02702 3.49239 5.02702 5.33333C5.02702 6.29851 5.43723 7.16787 6.09282 7.7766C3.90324 8.671 2.36035 10.822 2.36035 13.3333C2.36035 13.7015 2.65883 14 3.02702 14H8.36035C8.72855 14 9.02702 13.7015 9.02702 13.3333C9.02702 12.9651 8.72855 12.6667 8.36035 12.6667H3.74094C4.06443 10.4051 6.00937 8.66667 8.36035 8.66667ZM10.3604 5.33333C10.3604 6.4379 9.46495 7.33333 8.36035 7.33333C7.25575 7.33333 6.36035 6.4379 6.36035 5.33333C6.36035 4.22877 7.25575 3.33333 8.36035 3.33333C9.46495 3.33333 10.3604 4.22877 10.3604 5.33333Z" fill="white"/>
<path d="M11.6934 9.33341C11.6934 8.96521 11.9918 8.66675 12.36 8.66675C12.7282 8.66675 13.0267 8.96521 13.0267 9.33341V10.6667H14.36C14.7282 10.6667 15.0267 10.9652 15.0267 11.3334C15.0267 11.7016 14.7282 12.0001 14.36 12.0001H13.0267V13.3334C13.0267 13.7016 12.7282 14.0001 12.36 14.0001C11.9918 14.0001 11.6934 13.7016 11.6934 13.3334V12.0001H10.36C9.99183 12.0001 9.69336 11.7016 9.69336 11.3334C9.69336 10.9652 9.99183 10.6667 10.36 10.6667H11.6934V9.33341Z" fill="white"/>
</svg>
