<svg width="12" height="14" viewBox="0 0 12 14" fill="none" xmlns="http://www.w3.org/2000/svg">
<path d="M7.95845 8.05625C9.73618 8.05625 11.2016 9.52168 11.2016 11.2994V11.9C11.2016 12.5486 10.6731 13.0531 10.0485 13.0531H1.59223C0.943602 13.0531 0.439109 12.5486 0.439109 11.9V11.2994C0.439109 9.52168 1.88052 8.05625 3.65825 8.05625C4.35493 8.05625 4.66723 8.44062 5.82036 8.44062C6.94946 8.44062 7.26177 8.05625 7.95845 8.05625ZM10.0485 11.9V11.2994C10.0485 10.1463 9.11157 9.20937 7.95845 9.20937C7.59809 9.20937 7.04555 9.59375 5.82036 9.59375C4.57114 9.59375 4.0186 9.20937 3.65825 9.20937C2.50512 9.20937 1.59223 10.1463 1.59223 11.2994V11.9H10.0485ZM5.82036 7.67187C3.89848 7.67187 2.36098 6.13437 2.36098 4.2125C2.36098 2.31465 3.89848 0.753125 5.82036 0.753125C7.71821 0.753125 9.27973 2.31465 9.27973 4.2125C9.27973 6.13437 7.71821 7.67187 5.82036 7.67187ZM5.82036 1.90625C4.54712 1.90625 3.51411 2.96328 3.51411 4.2125C3.51411 5.48574 4.54712 6.51875 5.82036 6.51875C7.06958 6.51875 8.12661 5.48574 8.12661 4.2125C8.12661 2.96328 7.06958 1.90625 5.82036 1.90625Z" fill="black" fill-opacity="0.5"/>
</svg>
