<svg width="16" height="4" viewBox="0 0 16 4" fill="none" xmlns="http://www.w3.org/2000/svg">
<path fill-rule="evenodd" clip-rule="evenodd" d="M2.16667 3.66671C3.08714 3.66671 3.83333 2.92054 3.83333 2.00004C3.83333 1.07954 3.08714 0.333374 2.16667 0.333374C1.24619 0.333374 0.5 1.07954 0.5 2.00004C0.5 2.92054 1.24619 3.66671 2.16667 3.66671ZM8 3.66671C8.9205 3.66671 9.66667 2.92054 9.66667 2.00004C9.66667 1.07954 8.9205 0.333374 8 0.333374C7.0795 0.333374 6.33333 1.07954 6.33333 2.00004C6.33333 2.92054 7.0795 3.66671 8 3.66671ZM15.5 2.00004C15.5 2.92054 14.7538 3.66671 13.8333 3.66671C12.9128 3.66671 12.1667 2.92054 12.1667 2.00004C12.1667 1.07954 12.9128 0.333374 13.8333 0.333374C14.7538 0.333374 15.5 1.07954 15.5 2.00004Z" fill="black"/>
</svg>
