<svg width="17" height="16" viewBox="0 0 17 16" fill="none" xmlns="http://www.w3.org/2000/svg">
<path fill-rule="evenodd" clip-rule="evenodd" d="M1.7832 4.66659V9.99992C1.7832 10.7363 2.38016 11.3333 3.11654 11.3333H4.44987C5.18625 11.3333 5.7832 10.7363 5.7832 9.99992V4.66659C5.7832 3.93021 5.18625 3.33325 4.44987 3.33325H3.11654C2.38016 3.33325 1.7832 3.93021 1.7832 4.66659ZM3.11654 4.66659V9.99992H4.44987V4.66659H3.11654Z" fill="white"/>
<path fill-rule="evenodd" clip-rule="evenodd" d="M6.4502 4.66671V8.66671C6.4502 9.40311 7.04715 10 7.78353 10H9.11686C9.85326 10 10.4502 9.40311 10.4502 8.66671V4.66671C10.4502 3.93033 9.85326 3.33337 9.11686 3.33337H7.78353C7.04715 3.33337 6.4502 3.93033 6.4502 4.66671ZM7.78353 4.66671V8.66671H9.11686V4.66671H7.78353Z" fill="white"/>
<path fill-rule="evenodd" clip-rule="evenodd" d="M11.1172 11.3333V4.66659C11.1172 3.93021 11.7141 3.33325 12.4505 3.33325H13.7839C14.5203 3.33325 15.1172 3.93021 15.1172 4.66659V11.3333C15.1172 12.0697 14.5203 12.6666 13.7839 12.6666H12.4505C11.7141 12.6666 11.1172 12.0697 11.1172 11.3333ZM12.4505 11.3333V4.66659H13.7839V11.3333H12.4505Z" fill="white"/>
</svg>
