<svg width="272" height="32" viewBox="0 0 272 32" fill="none" xmlns="http://www.w3.org/2000/svg">
<path d="M1 31.39H271" stroke="#EAE8F1"/>
<path d="M1 2.39V31.39" stroke="#EAE8F1"/>
<mask id="mask0_264_1155" style="mask-type:luminance" maskUnits="userSpaceOnUse" x="-2" y="0" width="276" height="33">
<path d="M274 0.389999H-2V32.39H274V0.389999Z" fill="white"/>
</mask>
<g mask="url(#mask0_264_1155)">
<path d="M1 31.39V23.0567L15.2105 16.39L29.4211 23.0567L43.6316 21.39L57.8421 24.7233L72.0526 11.39L86.2632 1.39L100.474 8.05667L114.684 14.7233L128.895 6.39L143.105 11.39L157.316 23.0567L171.526 18.0567L185.737 23.0567L199.947 11.39L214.158 23.0567L228.368 11.39L242.579 14.7233L256.789 4.72333L271 11.39V31.39" fill="url(#paint0_linear_264_1155)"/>
</g>
<mask id="mask1_264_1155" style="mask-type:luminance" maskUnits="userSpaceOnUse" x="-2" y="0" width="276" height="32">
<path d="M274 0H-2V32H274V0Z" fill="white"/>
</mask>
<g mask="url(#mask1_264_1155)">
<path d="M1 23.0567L15.2105 16.39L29.4211 23.0567L43.6316 21.39L57.8421 24.7233L72.0526 11.39L86.2632 1.39L100.474 8.05667L114.684 14.7233L128.895 6.39L143.105 11.39L157.316 23.0567L171.526 18.0567L185.737 23.0567L199.947 11.39L214.158 23.0567L228.368 11.39L242.579 14.7233L256.789 4.72333L271 11.39" stroke="white" stroke-opacity="0.5" stroke-width="2"/>
</g>
<defs>
<linearGradient id="paint0_linear_264_1155" x1="1" y1="1.39" x2="1" y2="31.39" gradientUnits="userSpaceOnUse">
<stop stop-color="white" stop-opacity="0.25"/>
<stop offset="1" stop-color="white" stop-opacity="0.25"/>
</linearGradient>
</defs>
</svg>
