<svg width="14" height="15" viewBox="0 0 14 15" fill="none" xmlns="http://www.w3.org/2000/svg">
<path d="M13.7812 7.75C13.7812 11.4961 10.7461 14.5312 7 14.5312C3.25391 14.5312 0.21875 11.4961 0.21875 7.75C0.21875 4.00391 3.25391 0.96875 7 0.96875C10.7461 0.96875 13.7812 4.00391 13.7812 7.75ZM9.84375 6.98438L7.875 9.03516V4.03125C7.875 3.67578 7.57422 3.375 7.21875 3.375H6.78125C6.39844 3.375 6.125 3.67578 6.125 4.03125V9.03516L4.12891 6.98438C3.88281 6.71094 3.44531 6.71094 3.19922 6.95703L2.89844 7.25781C2.65234 7.53125 2.65234 7.94141 2.89844 8.1875L6.53516 11.8242C6.78125 12.0703 7.19141 12.0703 7.4375 11.8242L11.0742 8.1875C11.3477 7.94141 11.3477 7.50391 11.0742 7.25781L10.7734 6.95703C10.5273 6.71094 10.0898 6.71094 9.84375 6.98438Z" fill="white"/>
</svg>
