<svg width="13" height="13" viewBox="0 0 13 13" fill="none" xmlns="http://www.w3.org/2000/svg">
<path d="M6.83516 0.324219C10.1264 0.324219 12.793 2.99082 12.793 6.28203C12.793 9.57324 10.1264 12.2398 6.83516 12.2398C3.54394 12.2398 0.877343 9.57324 0.877343 6.28203C0.877343 2.99082 3.54394 0.324219 6.83516 0.324219ZM6.83516 11.0867C9.47773 11.0867 11.6398 8.94863 11.6398 6.28203C11.6398 3.63945 9.47773 1.47734 6.83516 1.47734C4.16855 1.47734 2.03047 3.63945 2.03047 6.28203C2.03047 8.94863 4.16855 11.0867 6.83516 11.0867ZM9.26152 4.79258L7.77207 6.28203L9.26152 7.79551C9.38164 7.8916 9.38164 8.08379 9.26152 8.20391L8.73301 8.73242C8.61289 8.85254 8.4207 8.85254 8.32461 8.73242L6.83516 7.24297L5.32168 8.73242C5.22559 8.85254 5.0334 8.85254 4.91328 8.73242L4.38477 8.20391C4.26465 8.08379 4.26465 7.8916 4.38477 7.79551L5.87422 6.28203L4.38477 4.79258C4.26465 4.69648 4.26465 4.5043 4.38477 4.38418L4.91328 3.85566C5.0334 3.73555 5.22559 3.73555 5.32168 3.85566L6.83516 5.34512L8.32461 3.85566C8.4207 3.73555 8.61289 3.73555 8.73301 3.85566L9.26152 4.38418C9.38164 4.5043 9.38164 4.69648 9.26152 4.79258Z" fill="black" fill-opacity="0.5"/>
</svg>
